<?xml version="1.0" encoding="utf-8"?>
<!-- Generator: Adobe Illustrator 19.2.0, SVG Export Plug-In . SVG Version: 6.00 Build 0)  -->
<svg version="1.1" id="Layer_1" xmlns="http://www.w3.org/2000/svg" xmlns:xlink="http://www.w3.org/1999/xlink" x="0px" y="0px"
	 viewBox="0 0 222.2 75" style="enable-background:new 0 0 222.2 75;" xml:space="preserve">
<style type="text/css">
	.st0{fill:#FFFFFF;}
</style>
<g>
	<path class="st0" d="M37.5,0C16.8,0,0,16.8,0,37.5C0,58.2,16.8,75,37.5,75S75,58.2,75,37.5C75,16.8,58.2,0,37.5,0 M37.5,6.1
		c17.3,0,31.4,14.1,31.4,31.4c0,4-0.7,7.7-2.1,11.2h-9.5c-0.7,0-1.3-0.4-1.6-0.9c-3.9-6.7-15.6-27-15.6-27l-2.6-4.6l-2.6,4.6
		c0,0-11.7,20.2-15.6,27c-0.3,0.6-1,0.9-1.6,0.9H8.2c-1.3-3.5-2.1-7.3-2.1-11.2C6.1,20.2,20.2,6.1,37.5,6.1 M37.5,68.9
		c-10.9,0-20.6-5.6-26.2-14.1h6.4c2.8,0,5.5-1.5,6.9-4c2.7-4.7,9.3-16,12.9-22.4c1.5,2.5,3.4,5.9,5.4,9.3l-5.4,0L34,43.8l12.4,0
		c1.6,2.8,3.1,5.4,4.1,7.1c1.4,2.5,4.1,4,6.9,4h6.4C58.1,63.3,48.4,68.9,37.5,68.9"/>
	<path class="st0" d="M86.7,54.7h5.9l3.9-9.2h12.6l3.8,9.2h5.9l-15.9-37L86.7,54.7z M102.9,30.7l4.1,9.7h-8.2L102.9,30.7z"/>
	<path class="st0" d="M129.6,32.3c-1.6,0-2.7,0.5-3.6,1.4v-0.8h-5.2v21.9h5.2v-11c0-4.5,0.9-6.5,3-6.5c0.5,0,0.7,0.2,1.3,0.6
		l1.1,0.8l2.5-4.8l-0.8-0.4C132.2,32.8,131.1,32.3,129.6,32.3"/>
	<path class="st0" d="M144.6,32.3c-1.6,0-2.7,0.5-3.6,1.4v-0.8h-5.2v21.9h5.2v-11c0-4.5,0.9-6.5,3-6.5c0.5,0,0.7,0.2,1.3,0.6
		l1.1,0.8l2.5-4.8l-0.8-0.4C147.2,32.8,146.1,32.3,144.6,32.3"/>
	<path class="st0" d="M150.8,32.8h5.2v21.9h-5.2V32.8z M153.4,22.8c-1.8,0-3.3,1.5-3.3,3.3c0,1.8,1.5,3.3,3.3,3.3
		c1.8,0,3.3-1.5,3.3-3.3C156.7,24.3,155.2,22.8,153.4,22.8"/>
	<path class="st0" d="M168.6,41.2l-0.8-0.3c-2-0.8-3.3-1.4-3.3-2.3c0-0.7,0.9-1.3,1.6-1.3c0.9,0,1.6,0.8,1.9,1.5l0.4,0.9l4.5-2.3
		l-0.3-0.8c-1.1-2.5-3.6-4.3-6.2-4.3c-3.9,0-6.9,2.8-6.9,6.6c0,4,3.1,5.3,5.7,6.4c2.1,0.9,3.4,1.5,3.4,2.9c0,1.3-1,2.2-2.4,2.2
		c-1.7,0-2.5-0.9-3.3-2.7l-0.4-0.8l-4.6,2l0.3,0.8c1.2,3.6,4.2,5.7,8,5.7c4.3,0,7.7-3.3,7.7-7.4C173.8,43.9,171,42.2,168.6,41.2"/>
	<polygon class="st0" points="185.6,32.8 182,32.8 182,25.6 176.8,25.6 176.8,32.8 174.7,32.8 174.7,37.8 176.8,37.8 176.8,54.7 
		182,54.7 182,37.8 185.6,37.8 	"/>
	<path class="st0" d="M202.3,46.6c-1.4,2.5-3.1,3.7-5.3,3.7c-3,0-5.2-2-5.6-4.9H207l0-0.8c0.2-3.6-0.9-7-3-9.2c-1.9-2-4.4-3-7.4-3
		C190.3,32.3,186,37,186,44c0,6.5,4.5,11.3,10.7,11.3c4.4,0,8-2.2,10.1-6.1l0.4-0.8l-4.5-2.6L202.3,46.6z M191.7,40.7
		c0.8-2,2.8-3.5,5-3.5c2.1,0,4,1.4,4.7,3.5H191.7z"/>
	<path class="st0" d="M221.5,33.3c-0.9-0.5-2.1-1.1-3.5-1.1c-1.6,0-2.7,0.5-3.6,1.4v-0.8h-5.2v21.9h5.2v-11c0-4.5,0.9-6.5,3-6.5
		c0.5,0,0.7,0.2,1.3,0.6l1.1,0.8l2.5-4.8L221.5,33.3z"/>
</g>
</svg>
