<?xml version="1.0" encoding="utf-8"?>
<!-- Generator: Adobe Illustrator 19.2.0, SVG Export Plug-In . SVG Version: 6.00 Build 0)  -->
<svg version="1.1" id="Layer_1" xmlns="http://www.w3.org/2000/svg" xmlns:xlink="http://www.w3.org/1999/xlink" x="0px" y="0px"
	 viewBox="0 0 400 241.4" style="enable-background:new 0 0 400 241.4;" xml:space="preserve">
<style type="text/css">
	.st0{fill:#FFFFFF;}
</style>
<g>
	<path class="st0" d="M350.4,0c-22.9,0-33.1,12.4-33.1,24.4c0,3,1,6.4,3.4,8.4c24.1,1.5,41.6,16.7,41.6,46.4
		c0,41.6-15.6,81.5-26.4,81.5c-5.1,0-7.7-2.5-7.7-11.3c0-18.2,9-46.9,27.7-59c0.2-1,0.2-2.1,0.2-3.1c0-6.6-3.9-11-11.8-11
		c-17.7,0-44,29.1-50.6,60.7c-14.7,18.7-19.7,28.6-23.7,28.6c-2.3,0-3.6-1-3.6-3.9c0-6.4,10.3-28.7,14.9-40
		c4.6-10.7,8.3-19.7,8.3-26.4c0-10-5.7-18.9-17.4-18.9c-11.3,0-26.8,11-47.8,42.5c6.2-12.3,8.4-20.8,8.4-27.4
		c0-8.5-5.4-15.1-15.1-15.1c-11.3,0-26.1,10-44.8,42.3c6.2-13.6,8.4-25.1,8.4-31.5c0-7.7-3.6-10.7-11-10.7
		c-15.9,0-36.9,21.5-36.9,36.6c0,4.8,0.5,10.2,2.2,14.8c-15.5,22.5-41.2,32.9-61.8,32.9c-22.3,0-29.2-12.1-29.2-36.4
		c0-44.4,27.4-93.8,41.6-93.8c5.1,0,8.7,4.3,8.7,16.1c0,5.7-0.4,15.4-4.5,25.1c1.6,3.1,4.3,4.6,10.8,4.6c18.2,0,31.4-18,31.4-41.8
		C132.6,12.8,122.3,0,96.9,0C52.3,0,0,71.6,0,135.7c0,40.8,20,62.5,54.4,62.5c27.8,0,56.6-13.8,74.6-33.1
		c0.8,14.8,10.7,33.1,24.7,33.1c5.9,0,7.7-0.8,10.3-3.3c0.8-17.4,3.4-37.2,7-56.9c10-13.9,16.2-17.7,18.5-17.7
		c2.1,0,3.1,0.7,3.1,3.1c0,2.5-2.3,8.4-4.4,14.1c-4.6,12.4-8.7,29.8-8.7,39.5c0.2,15.4,10,21.3,24.4,21.3c5.4,0,7.7-1.3,10.3-3.9
		c0.8-17.4,3.3-34.1,6.9-53.8c10-13.9,19-19.2,21.3-19.2c2.1,0,3.1,1,3.1,3c0,5.7-15.1,36.2-15.1,53.1c0,14.1,5.2,20.8,20.3,20.8
		c14,0,27.8-16.4,42.9-33.1c3.6,19.5,15,33.1,32.1,33.1c32.6,0,74.6-55.7,74.6-135.4C400,24.1,379.4,0,350.4,0z"/>
	<g>
		<path class="st0" d="M0,228.4c0-3.9,1.3-7,3.8-9.4c2.5-2.4,5.8-3.6,9.7-3.6c2.8,0,5.1,0.6,6.8,1.9c1.8,1.3,3.1,2.8,4.1,4.7
			l-5.6,2.7c-0.4-1-1.1-1.9-2.1-2.6c-1-0.7-2.1-1.1-3.2-1.1c-2.1,0-3.7,0.7-5,2.1c-1.3,1.4-2,3.2-2,5.3c0,2.1,0.6,3.8,2,5.2
			c1.3,1.4,3,2.1,5,2.1c1.2,0,2.2-0.3,3.3-1.1c1-0.7,1.7-1.6,2.1-2.6l5.6,2.6c-1,1.9-2.3,3.5-4.1,4.7c-1.8,1.3-4.1,1.9-6.8,1.9
			c-3.9,0-7.1-1.2-9.6-3.6C1.3,235.4,0,232.2,0,228.4z"/>
		<path class="st0" d="M27.3,240.9v-25h6.5v9.3h10.4v-9.3h6.4v25h-6.4v-10.1H33.8v10.1H27.3z"/>
		<path class="st0" d="M55.2,240.9v-25h12.5c2.7,0,4.8,0.8,6.4,2.3c1.5,1.6,2.3,3.6,2.3,6c0,2-0.5,3.6-1.4,4.9
			c-1,1.3-2.1,2.1-3.5,2.6l5,9.2h-7.3l-4.2-8.4h-3.3v8.4H55.2L55.2,240.9z M61.6,226.9h5.1c0.9,0,1.7-0.2,2.2-0.7
			c0.6-0.5,0.9-1.2,0.9-2c0-0.8-0.3-1.5-0.9-2c-0.6-0.5-1.3-0.7-2.2-0.7h-5.1V226.9z"/>
		<path class="st0" d="M80,240.9v-25h6.5v25H80z"/>
		<path class="st0" d="M89.1,237.5l3.4-5c2.2,2.2,4.8,3.3,8,3.3c1.1,0,2-0.2,2.6-0.5c0.6-0.3,0.9-0.8,0.9-1.5c0-0.5-0.3-0.9-1-1.3
			c-0.7-0.3-1.6-0.5-2.6-0.7c-1.1-0.1-2.2-0.4-3.4-0.8c-1.2-0.3-2.3-0.8-3.4-1.3c-1-0.5-1.9-1.3-2.6-2.3c-0.7-1.1-1-2.4-1-4
			c0-2.2,0.9-4.1,2.6-5.6c1.8-1.5,4.2-2.3,7.2-2.3c4.1,0,7.4,1.2,10.1,3.5l-3.4,4.8c-2.1-1.8-4.5-2.7-7.3-2.7
			c-1.8,0-2.7,0.6-2.7,1.8c0,0.6,0.5,1,1.5,1.3c1,0.3,2.1,0.6,3.5,0.9c1.4,0.3,2.8,0.7,4.2,1.2c1.4,0.5,2.5,1.3,3.5,2.4
			c1,1.2,1.5,2.6,1.5,4.3c0,2.5-0.9,4.5-2.7,6.1c-1.8,1.5-4.3,2.3-7.6,2.3C95.7,241.4,91.9,240,89.1,237.5z"/>
		<path class="st0" d="M123.3,240.9v-25h9l5.3,13.8l5.2-13.8h9v25h-6.4v-16.6l-6.3,16.6h-2.8l-6.3-16.6v16.6H123.3z"/>
		<path class="st0" d="M153.7,240.9l9.4-25h8.2l9.4,25h-7.3l-1.2-3.6h-9.9l-1.2,3.6H153.7z M164,231.7h6.3l-3.2-9.4L164,231.7z"/>
		<path class="st0" d="M183.3,240.9v-25h14.2c2.3,0,4.2,0.6,5.4,1.9c1.3,1.3,1.9,2.7,1.9,4.5c0,1.5-0.4,2.7-1.2,3.8
			c-0.8,1-1.8,1.7-3,2c1.3,0.2,2.4,0.9,3.3,2.1c0.9,1.2,1.4,2.5,1.4,4.1c0,1.9-0.6,3.5-1.9,4.8c-1.3,1.3-3.1,2-5.4,2H183.3
			L183.3,240.9z M189.8,225.4h6.2c0.7,0,1.2-0.2,1.6-0.5s0.6-0.8,0.6-1.4c0-0.6-0.2-1.1-0.6-1.4c-0.4-0.3-1-0.5-1.6-0.5h-6.2V225.4z
			 M189.8,235.3h6.5c0.7,0,1.4-0.2,1.8-0.6c0.4-0.4,0.7-0.9,0.7-1.6c0-0.6-0.2-1.1-0.7-1.5c-0.4-0.4-1-0.6-1.8-0.6h-6.5V235.3
			L189.8,235.3z"/>
		<path class="st0" d="M208.1,240.9v-25h12.5c2.7,0,4.8,0.8,6.3,2.3s2.3,3.6,2.3,6c0,2-0.4,3.6-1.4,4.9c-1,1.3-2.1,2.1-3.5,2.6
			l5,9.2H222l-4.2-8.4h-3.3v8.4H208.1L208.1,240.9z M214.6,226.9h5.1c0.9,0,1.7-0.2,2.2-0.7c0.6-0.5,0.9-1.2,0.9-2
			c0-0.8-0.3-1.5-0.9-2c-0.6-0.5-1.3-0.7-2.2-0.7h-5.1V226.9z"/>
		<path class="st0" d="M229.5,215.9h7.3l5.4,9.2l5.4-9.2h7.3l-9.4,14.9v10.1H239v-10.1L229.5,215.9z"/>
		<path class="st0" d="M265.6,240.9v-25H276c4,0,7.3,1.1,9.8,3.4c2.5,2.2,3.8,5.3,3.8,9.1c0,3.9-1.3,6.9-3.8,9.1
			c-2.5,2.3-5.8,3.4-9.7,3.4H265.6z M272,235.3h4.1c2.1,0,3.8-0.7,5.1-2c1.3-1.4,1.9-3,1.9-4.9c0-2.1-0.6-3.7-1.8-5
			c-1.2-1.3-2.9-1.9-5.1-1.9H272V235.3L272,235.3z"/>
		<path class="st0" d="M293.2,240.9v-25h18.4v5.6h-11.9v3.9h11.7v5.7h-11.7v4.2h11.9v5.6H293.2L293.2,240.9z"/>
		<path class="st0" d="M314.6,237.5l3.4-5c2.2,2.2,4.8,3.3,8,3.3c1.1,0,2-0.2,2.6-0.5c0.6-0.3,0.9-0.8,0.9-1.5c0-0.5-0.3-0.9-1-1.3
			c-0.7-0.3-1.6-0.5-2.6-0.7c-1.1-0.1-2.2-0.4-3.4-0.8c-1.2-0.3-2.3-0.8-3.4-1.3c-1-0.5-1.9-1.3-2.6-2.3c-0.7-1.1-1-2.4-1-4
			c0-2.2,0.9-4.1,2.6-5.6c1.8-1.5,4.2-2.3,7.2-2.3c4.1,0,7.4,1.2,10.1,3.5l-3.5,4.8c-2.1-1.8-4.5-2.7-7.3-2.7
			c-1.8,0-2.7,0.6-2.7,1.8c0,0.6,0.5,1,1.5,1.3c1,0.3,2.1,0.6,3.5,0.9c1.4,0.3,2.8,0.7,4.2,1.2s2.5,1.3,3.5,2.4
			c1,1.2,1.5,2.6,1.5,4.3c0,2.5-0.9,4.5-2.7,6.1c-1.8,1.5-4.3,2.3-7.6,2.3C321.1,241.4,317.4,240,314.6,237.5z"/>
		<path class="st0" d="M338.6,240.9v-25h6.4v25H338.6z"/>
		<path class="st0" d="M352.2,237.8c-2.6-2.4-3.9-5.5-3.9-9.4c0-4,1.3-7.1,3.9-9.4c2.6-2.4,5.8-3.6,9.6-3.6c2.6,0,4.8,0.6,6.6,1.7
			c1.8,1.1,3.1,2.6,4.1,4.3l-5.4,2.9c-0.5-0.9-1.2-1.7-2.2-2.3c-0.9-0.6-2-1-3.1-1c-2,0-3.7,0.7-5,2.1c-1.3,1.4-2,3.1-2,5.2
			c0,2.1,0.6,3.9,2,5.3c1.3,1.4,3,2.1,5,2.1c0.9,0,1.8-0.1,2.6-0.4c0.9-0.3,1.5-0.7,2-1.1v-2h-5.7v-5.7h12.1v10.1
			c-2.9,3.2-6.6,4.8-11,4.8C358,241.4,354.8,240.2,352.2,237.8z"/>
		<path class="st0" d="M376.8,240.9v-25h6.6l10.2,13.8v-13.8h6.4v25h-6.2l-10.6-14.5v14.5H376.8z"/>
	</g>
</g>
<g>
</g>
<g>
</g>
<g>
</g>
<g>
</g>
<g>
</g>
<g>
</g>
<g>
</g>
<g>
</g>
<g>
</g>
<g>
</g>
<g>
</g>
<g>
</g>
<g>
</g>
<g>
</g>
<g>
</g>
</svg>
