<?xml version="1.0" encoding="utf-8"?>
<!-- Generator: Adobe Illustrator 19.2.0, SVG Export Plug-In . SVG Version: 6.00 Build 0)  -->
<svg version="1.1" id="Layer_1" xmlns="http://www.w3.org/2000/svg" xmlns:xlink="http://www.w3.org/1999/xlink" x="0px" y="0px"
	 viewBox="0 0 588 92.6" style="enable-background:new 0 0 588 92.6;" xml:space="preserve">
<style type="text/css">
	.st0{fill:#FFFFFF;}
</style>
<g>
	<path class="st0" d="M0,91.3V6.1h51.9v15.5H17.3v17.1h24.2V54H17.3v21.9h34.6v15.5H0z"/>
	<path class="st0" d="M101.1,91.3v-7.8c-4.8,5.6-11.1,9-18,9c-16.7,0-25.7-15.1-25.7-31.2c0-15.8,9.4-30.8,25.8-30.8
		c6.6,0,12.7,2.4,17.3,7.3V0h17.1v91.3H101.1z M100.7,61.5c0-9.1-5.2-15.7-13.2-15.7c-8.9,0-13.3,7.1-13.3,15.8
		c0,8.6,4.5,15.8,13.3,15.8C95.4,77.5,100.7,69.7,100.7,61.5z"/>
	<path class="st0" d="M142.6,2.3c6.1,0,11.2,5.1,11.2,11.2c0,6.1-5.1,11.2-11.2,11.2s-11.2-5.1-11.2-11.2
		C131.4,7.4,136.5,2.3,142.6,2.3z M133.7,91.3V31.9h17.4v59.4H133.7z"/>
	<path class="st0" d="M172.3,31.9V10.7h17.1v21.2h8.4v15.8h-8.4v43.6h-17.1V47.7h-8.3V31.9H172.3z"/>
	<path class="st0" d="M219.2,2.3c6.1,0,11.2,5.1,11.2,11.2c0,6.1-5.1,11.2-11.2,11.2S208,19.6,208,13.5C208,7.4,213.1,2.3,219.2,2.3
		z M210.3,91.3V31.9h17.4v59.4H210.3z"/>
	<path class="st0" d="M240.7,61.5c0-17.7,13.6-30.9,31.1-30.9c17.4,0,31.1,13.3,31.1,30.9c0,17.7-13.6,30.9-31.1,30.9
		C254.3,92.4,240.7,79.2,240.7,61.5z M286.1,61.5c0-9-5.7-15.7-14.4-15.7c-8.8,0-14.5,6.7-14.5,15.7c0,9.1,6,15.8,14.5,15.8
		C280.4,77.3,286.1,70.6,286.1,61.5z"/>
	<path class="st0" d="M331.8,91.3h-17.1V31.9h17.1v4c0,1-0.1,2.4-0.4,4.1c3.9-5.6,9.9-9.6,18-9.6c12.3,0,21.6,9.6,21.6,25.6v35.3
		h-17.2V57c0-8.3-5.2-12.5-11-12.5c-5.1,0-10.8,4.1-11.1,12.1V91.3z"/>
	<path class="st0" d="M386.6,91.3V0h17.3v91.3H386.6z"/>
	<path class="st0" d="M433,65.3c1.2,9.9,7.3,13.5,14,13.5c6.6,0,11.1-3,14-7.3l11.3,8.2c-6.3,8.5-12.8,12.9-26.3,12.9
		c-17.4,0-30.2-12.8-30.2-31.1c0-16.9,11.4-30.9,29.7-30.9c20.1,0,28,14.4,28,32.6v2.1H433z M433.5,54.8H457
		c-1.1-6.8-6.3-10.4-11.6-10.4C439.9,44.5,435.2,47.9,433.5,54.8z"/>
	<path class="st0" d="M491.4,71.4c4.1,4.8,10.7,6.7,16.4,6.7c3.7,0,6.3-1.5,6.3-3.7c0-3-3-4.5-8-6c-9.3-2.7-20.7-7.8-20.7-19.9
		c0-11.4,11.1-17.9,21.1-17.9c9,0,15.3,3,20.7,8.6l-9.5,10.2c-2.6-2.8-7.3-5.4-10.8-5.4c-3.2,0-5.5,1.5-5.5,3.8c0,2.9,3.4,4.4,8.8,6
		c9,2.7,20.6,8.3,20.6,19.6c0,11.2-9.6,19-23,19c-10.7,0-19.5-3-25.9-10L491.4,71.4z"/>
	<path class="st0" d="M548.7,71.4c4.1,4.8,10.7,6.7,16.4,6.7c3.7,0,6.3-1.5,6.3-3.7c0-3-3-4.5-8-6c-9.3-2.7-20.7-7.8-20.7-19.9
		c0-11.4,11.1-17.9,21.1-17.9c9,0,15.3,3,20.7,8.6L575,49.6c-2.6-2.8-7.3-5.4-10.8-5.4c-3.2,0-5.5,1.5-5.5,3.8c0,2.9,3.4,4.4,8.8,6
		c9,2.7,20.6,8.3,20.6,19.6c0,11.2-9.6,19-23,19c-10.7,0-19.5-3-25.9-10L548.7,71.4z"/>
</g>
</svg>
