<?xml version="1.0" encoding="utf-8"?>
<!-- Generator: Adobe Illustrator 19.2.0, SVG Export Plug-In . SVG Version: 6.00 Build 0)  -->
<svg version="1.1" id="Layer_1" xmlns="http://www.w3.org/2000/svg" xmlns:xlink="http://www.w3.org/1999/xlink" x="0px" y="0px"
	 viewBox="0 0 624.3 345.5" style="enable-background:new 0 0 624.3 345.5;" xml:space="preserve">
<style type="text/css">
	.st0{fill:#FFFFFF;}
</style>
<g>
	<g>
		<path class="st0" d="M112.2,345.5H88.2c-18.5,0-34.4-5.9-47.7-17.8c-13.3-11.9-19.9-27.7-19.9-47.5v-63.1c0-7.8-1.8-14.2-5.3-19.3
			c-3.6-5-8.6-7.5-15.3-7.5v-33.8c6.6,0,11.7-2.5,15.3-7.6c3.6-5.1,5.3-11.6,5.3-19.4V65.8c0-19.6,6.7-35.5,19.9-47.6
			C53.8,6.1,69.7,0,88.2,0h23.9v35.8H88.2c-6.9,0-12.7,2.7-17.5,8.2c-4.8,5.5-7.2,12.8-7.2,21.9v70.6c0,19.2-6.1,31.5-18.3,37
			c12.2,5.6,18.3,17.9,18.3,37v69.9c0,8.6,2.4,15.7,7.2,21.2c4.8,5.6,10.6,8.3,17.5,8.3h23.9V345.5z"/>
		<path class="st0" d="M512.2,309.8h23.9c6.9,0,12.7-2.8,17.5-8.3c4.8-5.6,7.2-12.6,7.2-21.2v-69.9c0-19,6.1-31.4,18.3-37
			c-12.2-5.5-18.3-17.8-18.3-37V65.8c0-9.1-2.4-16.4-7.2-21.9c-4.8-5.5-10.6-8.2-17.5-8.2h-23.9V0h23.9c18.5,0,34.4,6.1,47.7,18.2
			c13.3,12.1,19.9,28,19.9,47.6v63.6c0,7.9,1.8,14.4,5.3,19.4c3.6,5.1,8.6,7.6,15.3,7.6v33.8c-6.6,0-11.7,2.5-15.3,7.5
			c-3.6,5-5.3,11.5-5.3,19.3v63.1c0,19.8-6.7,35.6-19.9,47.5c-13.3,11.9-29.2,17.8-47.7,17.8h-23.9V309.8z"/>
	</g>
	<g>
		<path class="st0" d="M112.2,165.1V96.6h17.6v25.6h28.4V96.6h17.7v68.5h-17.7v-27.5h-28.4v27.5H112.2z"/>
		<path class="st0" d="M182.9,165.1l25.8-68.5H231l25.8,68.5h-20l-3.4-9.9h-27l-3.4,9.9H182.9z M211.2,139.8h17.3l-8.6-25.8
			L211.2,139.8z"/>
		<path class="st0" d="M254.3,130.9c0-10.5,3.4-19,10.3-25.6c6.9-6.6,15.7-9.9,26.4-9.9c7.6,0,13.8,1.7,18.7,5.2
			c4.9,3.4,8.6,7.8,11.2,12.9l-15.2,7.4c-1.2-2.8-3.1-5.2-5.8-7.2c-2.7-1.9-5.6-2.9-8.8-2.9c-5.5,0-10.1,1.9-13.7,5.7
			c-3.6,3.8-5.4,8.6-5.4,14.3c0,5.7,1.8,10.4,5.4,14.3c3.6,3.8,8.2,5.8,13.7,5.8c3.2,0,6.2-1,8.9-2.9c2.7-1.9,4.6-4.3,5.8-7.2
			l15.2,7.3c-2.6,5.2-6.4,9.5-11.3,13c-4.9,3.5-11.1,5.2-18.6,5.2c-10.6,0-19.4-3.3-26.3-9.9C257.7,149.8,254.3,141.3,254.3,130.9z"
			/>
		<path class="st0" d="M327.7,165.1V96.6h17.6v28.1l21.1-28.1h21.7l-26.6,32l28,36.4h-21.7l-18-25.8l-4.6,5.8v20H327.7z"/>
		<path class="st0" d="M396.6,165.1V96.6h50.2V112h-32.5v10.7h31.8v15.4h-31.8v11.6h32.5v15.4H396.6z"/>
		<path class="st0" d="M453.9,165.1V96.6H488c7.3,0,13.1,2.2,17.4,6.5c4.2,4.3,6.3,9.8,6.3,16.3c0,5.5-1.3,9.9-3.9,13.4
			c-2.6,3.4-5.8,5.8-9.5,7.1l13.7,25.2h-19.9l-11.5-23h-9v23H453.9z M471.5,126.7h14c2.5,0,4.5-0.7,6.1-2c1.6-1.3,2.4-3.1,2.4-5.4
			c0-2.3-0.8-4.1-2.4-5.4c-1.6-1.3-3.7-2-6.1-2h-14V126.7z"/>
	</g>
	<g>
		<path class="st0" d="M124.2,214.7c0-10.5,3.4-19,10.3-25.6c6.9-6.6,15.7-9.9,26.4-9.9c7.6,0,13.8,1.7,18.7,5.2
			c4.9,3.4,8.6,7.7,11.2,12.9l-15.2,7.4c-1.2-2.8-3.1-5.2-5.8-7.2c-2.7-1.9-5.6-2.9-8.8-2.9c-5.5,0-10.1,1.9-13.7,5.7
			c-3.6,3.8-5.4,8.6-5.4,14.3c0,5.7,1.8,10.4,5.4,14.3c3.6,3.8,8.2,5.8,13.7,5.8c3.2,0,6.2-1,8.9-2.9c2.7-1.9,4.6-4.3,5.8-7.2
			l15.2,7.2c-2.6,5.2-6.4,9.5-11.3,13c-4.9,3.5-11.1,5.2-18.6,5.2c-10.6,0-19.4-3.3-26.3-9.9C127.7,233.6,124.2,225,124.2,214.7z"/>
		<path class="st0" d="M204.6,240.2c-6.8-6.6-10.2-15.1-10.2-25.6c0-10.5,3.4-19,10.2-25.6c6.8-6.6,15.5-9.9,26.1-9.9
			c10.6,0,19.2,3.3,26,9.9c6.8,6.6,10.2,15.1,10.2,25.6c0,10.5-3.4,19-10.2,25.6c-6.8,6.6-15.5,9.9-26,9.9
			C220.2,250.1,211.5,246.8,204.6,240.2z M217.2,200.3c-3.5,3.8-5.2,8.6-5.2,14.3c0,5.8,1.7,10.5,5.2,14.3c3.4,3.8,7.9,5.7,13.5,5.7
			c5.6,0,10-1.9,13.5-5.7c3.4-3.8,5.1-8.6,5.1-14.3c0-5.8-1.7-10.5-5.1-14.3c-3.4-3.8-7.9-5.7-13.5-5.7
			C225.1,194.6,220.6,196.5,217.2,200.3z"/>
		<path class="st0" d="M274,248.9v-68.5h50.2v15.4h-32.5v10.7h31.8v15.4h-31.8v27H274z"/>
		<path class="st0" d="M331.2,248.9v-68.5h50.2v15.4h-32.5v10.7h31.8v15.4h-31.8v27H331.2z"/>
		<path class="st0" d="M388.5,248.9v-68.5h50.2v15.4h-32.5v10.7h31.8v15.4h-31.8v11.6h32.5v15.4H388.5z"/>
		<path class="st0" d="M445.7,248.9v-68.5h50.2v15.4h-32.5v10.7h31.8v15.4h-31.8v11.6h32.5v15.4H445.7z"/>
	</g>
</g>
<g>
</g>
<g>
</g>
<g>
</g>
<g>
</g>
<g>
</g>
<g>
</g>
<g>
</g>
<g>
</g>
<g>
</g>
<g>
</g>
<g>
</g>
<g>
</g>
<g>
</g>
<g>
</g>
<g>
</g>
</svg>
