<?xml version="1.0" encoding="utf-8"?>
<!-- Generator: Adobe Illustrator 19.2.0, SVG Export Plug-In . SVG Version: 6.00 Build 0)  -->
<svg version="1.1" id="Layer_1" xmlns="http://www.w3.org/2000/svg" xmlns:xlink="http://www.w3.org/1999/xlink" x="0px" y="0px"
	 viewBox="0 0 319.3 189.3" style="enable-background:new 0 0 319.3 189.3;" xml:space="preserve">
<style type="text/css">
	.st0{fill:#FFFFFF;}
</style>
<g>
	<circle class="st0" cx="122.2" cy="21.8" r="21.8"/>
	<g>
		<path class="st0" d="M0,186.7L0,43.6h36.9v143.1H0z"/>
		<path class="st0" d="M47.7,186.7l49.8-73.3L50.8,43.6h43.6l27.9,44.8l27.7-44.8h43.8l-46.5,69.6l49.8,73.5h-43.6l-31.1-48.1
			l-31.1,48.1H47.7z"/>
		<path class="st0" d="M197.1,166.8l19.5-28.8c12.5,12.7,27.7,19.1,45.6,19.1c6.3,0,11.3-1,14.9-3c3.6-2,5.4-4.8,5.4-8.4
			c0-2.9-2-5.3-6-7.1s-9-3.3-15.1-4.2c-6-1-12.5-2.4-19.3-4.5c-6.9-2-13.3-4.4-19.2-7.3c-5.9-2.8-10.9-7.3-14.8-13.6
			c-3.9-6.2-5.9-13.7-5.9-22.4c0-12.6,5-23.3,15-32.1c10-8.7,23.7-13.1,41.2-13.1c23.1,0,42.3,6.5,57.6,19.7l-19.8,27.7
			c-11.8-10.1-25.7-15.2-41.7-15.2c-10.3,0-15.4,3.3-15.4,10c0,3.2,2.8,5.7,8.4,7.6c5.6,1.9,12.4,3.6,20.3,5.3
			c7.9,1.7,15.8,3.8,23.5,6.5c7.7,2.7,14.4,7.3,19.9,13.9c5.5,6.6,8.2,14.9,8.2,24.8c0,14.5-5.2,26-15.5,34.6
			c-10.4,8.6-24.9,12.9-43.6,12.9C234.3,189.2,213.2,181.7,197.1,166.8z"/>
	</g>
</g>
<g>
</g>
<g>
</g>
<g>
</g>
<g>
</g>
<g>
</g>
<g>
</g>
<g>
</g>
<g>
</g>
<g>
</g>
<g>
</g>
<g>
</g>
<g>
</g>
<g>
</g>
<g>
</g>
<g>
</g>
</svg>
