<?xml version="1.0" encoding="utf-8"?>
<!-- Generator: Adobe Illustrator 19.2.0, SVG Export Plug-In . SVG Version: 6.00 Build 0)  -->
<svg version="1.1" id="Layer_1" xmlns="http://www.w3.org/2000/svg" xmlns:xlink="http://www.w3.org/1999/xlink" x="0px" y="0px"
	 viewBox="0 0 288.7 59.9" style="enable-background:new 0 0 288.7 59.9;" xml:space="preserve">
<style type="text/css">
	.st0{fill:#FFFFFF;}
</style>
<g>
	<g>
		<path class="st0" d="M0,50c0-2.1,0.7-3.9,2.1-5.2c1.4-1.3,3.2-2,5.4-2c1.5,0,2.8,0.4,3.8,1.1c1,0.7,1.7,1.6,2.3,2.6L10.4,48
			c-0.2-0.6-0.6-1.1-1.2-1.5c-0.5-0.4-1.1-0.6-1.8-0.6c-1.1,0-2.1,0.4-2.8,1.2C4,47.9,3.6,48.9,3.6,50c0,1.2,0.4,2.1,1.1,2.9
			c0.7,0.8,1.7,1.2,2.8,1.2c0.7,0,1.3-0.2,1.8-0.6c0.5-0.4,0.9-0.9,1.2-1.5l3.1,1.5c-0.5,1-1.3,1.9-2.3,2.6c-1,0.7-2.3,1.1-3.8,1.1
			c-2.2,0-3.9-0.7-5.3-2C0.7,53.9,0,52.1,0,50z"/>
		<path class="st0" d="M15.1,54.1v-7.2h3.2v5.8c0,1.1,0.6,1.6,1.7,1.6c0.8,0,1.4-0.3,1.9-1v-6.5h3.2V57h-3.2v-1.2
			c-0.9,1-2,1.5-3.5,1.5c-1.1,0-1.9-0.3-2.5-0.9C15.3,55.8,15.1,55,15.1,54.1z"/>
		<path class="st0" d="M26.6,55.7l1.3-2.3c0.4,0.3,0.9,0.7,1.6,0.9c0.7,0.3,1.3,0.4,1.9,0.4c0.9,0,1.4-0.2,1.4-0.7
			c0-0.2-0.2-0.4-0.6-0.5c-0.4-0.1-0.9-0.2-1.5-0.3c-0.6-0.1-1.1-0.2-1.7-0.4c-0.6-0.2-1.1-0.5-1.5-1c-0.4-0.5-0.6-1.1-0.6-1.9
			c0-0.9,0.4-1.7,1.2-2.4c0.8-0.6,1.8-1,3.2-1c1.6,0,3,0.4,4.2,1.3l-1.2,2.3c-0.3-0.3-0.7-0.6-1.3-0.8c-0.5-0.2-1.1-0.3-1.7-0.3
			c-0.4,0-0.7,0.1-0.9,0.2c-0.2,0.1-0.3,0.3-0.3,0.5c0,0.2,0.2,0.3,0.6,0.4c0.4,0.1,0.9,0.2,1.5,0.3c0.6,0.1,1.1,0.3,1.7,0.4
			c0.6,0.2,1.1,0.5,1.5,1c0.4,0.5,0.6,1.1,0.6,1.9c0,1-0.4,1.8-1.2,2.4c-0.8,0.6-1.9,0.9-3.3,0.9c-0.9,0-1.8-0.1-2.6-0.4
			C27.8,56.5,27.1,56.1,26.6,55.7z"/>
		<path class="st0" d="M36.5,49.8v-2.9h1.7v-2.6h3.2v2.6h2v2.9h-2v3.6c0,0.3,0.1,0.5,0.2,0.7c0.2,0.2,0.4,0.3,0.6,0.3
			c0.4,0,0.7-0.1,0.8-0.2l0.6,2.4c-0.5,0.5-1.3,0.7-2.4,0.7c-1,0-1.8-0.2-2.3-0.7c-0.5-0.5-0.8-1.2-0.8-2.2v-4.5H36.5z"/>
		<path class="st0" d="M45.9,55.7c-1-1-1.5-2.3-1.5-3.7c0-1.4,0.5-2.7,1.5-3.7c1-1,2.3-1.6,4-1.6c1.7,0,3,0.5,4,1.6
			c1,1,1.5,2.3,1.5,3.7c0,1.4-0.5,2.7-1.5,3.7c-1,1-2.4,1.6-4,1.6C48.2,57.2,46.9,56.7,45.9,55.7z M47.7,51.9c0,0.7,0.2,1.3,0.6,1.7
			c0.4,0.5,0.9,0.7,1.6,0.7c0.7,0,1.2-0.2,1.6-0.7c0.4-0.5,0.6-1,0.6-1.7c0-0.7-0.2-1.2-0.6-1.7c-0.4-0.5-0.9-0.7-1.6-0.7
			c-0.7,0-1.2,0.2-1.6,0.7C47.9,50.7,47.7,51.2,47.7,51.9z"/>
		<path class="st0" d="M57,57V46.9h3.2v1.3c0.3-0.4,0.7-0.7,1.3-1c0.6-0.3,1.3-0.5,2-0.5c1.5,0,2.4,0.6,2.8,1.8
			c0.3-0.5,0.8-0.9,1.4-1.3c0.6-0.4,1.3-0.5,2.1-0.5c1,0,1.7,0.3,2.2,0.8c0.5,0.5,0.8,1.3,0.8,2.3V57h-3.2v-6.1
			c0-0.9-0.4-1.3-1.3-1.3c-0.7,0-1.3,0.3-1.8,1V57h-3.2v-6.1c0-0.9-0.4-1.3-1.3-1.3c-0.7,0-1.3,0.3-1.8,1V57H57z"/>
		<path class="st0" d="M79.6,49.8v-2.9h1.7v-0.2c0-1.2,0.3-2.1,1-2.8c0.7-0.7,1.5-1,2.6-1c1.2,0,2.2,0.3,2.9,0.9l-1.2,2
			c-0.3-0.2-0.6-0.4-1-0.4c-0.3,0-0.6,0.1-0.8,0.3c-0.2,0.2-0.3,0.5-0.3,0.9v0.2h2v2.9h-2V57h-3.2v-7.2H79.6z"/>
		<path class="st0" d="M87.9,54.1v-7.2h3.2v5.8c0,1.1,0.6,1.6,1.7,1.6c0.8,0,1.4-0.3,1.9-1v-6.5h3.2V57h-3.2v-1.2
			c-0.9,1-2,1.5-3.5,1.5c-1.1,0-1.9-0.3-2.5-0.9C88.2,55.8,87.9,55,87.9,54.1z"/>
		<path class="st0" d="M100.2,57V46.9h3.2v1.3c0.3-0.4,0.8-0.8,1.4-1.1c0.6-0.3,1.2-0.5,1.8-0.5v3.2c-0.2-0.1-0.4-0.1-0.8-0.1
			c-0.4,0-0.9,0.1-1.4,0.3c-0.5,0.2-0.8,0.4-1,0.6V57H100.2z"/>
		<path class="st0" d="M108,57V46.9h3.2v1.3c0.8-1,2-1.5,3.5-1.5c1.1,0,1.9,0.3,2.5,0.9c0.6,0.6,0.8,1.4,0.8,2.3V57h-3.2v-5.8
			c0-1.1-0.5-1.7-1.6-1.7c-0.8,0-1.4,0.3-2,1V57H108z"/>
		<path class="st0" d="M120.7,45.5c-0.4-0.4-0.5-0.8-0.5-1.3c0-0.5,0.2-0.9,0.5-1.3c0.4-0.4,0.8-0.5,1.3-0.5c0.5,0,0.9,0.2,1.3,0.5
			c0.3,0.4,0.5,0.8,0.5,1.3c0,0.5-0.2,1-0.5,1.3c-0.3,0.4-0.8,0.5-1.3,0.5C121.5,46,121.1,45.8,120.7,45.5z M120.4,57V46.9h3.2V57
			H120.4z"/>
		<path class="st0" d="M124.9,49.8v-2.9h1.7v-2.6h3.2v2.6h2v2.9h-2v3.6c0,0.3,0.1,0.5,0.2,0.7c0.2,0.2,0.4,0.3,0.6,0.3
			c0.4,0,0.7-0.1,0.8-0.2l0.6,2.4c-0.5,0.5-1.3,0.7-2.4,0.7c-1,0-1.8-0.2-2.3-0.7c-0.5-0.5-0.8-1.2-0.8-2.2v-4.5H124.9z"/>
		<path class="st0" d="M133.5,54.1v-7.2h3.2v5.8c0,1.1,0.6,1.6,1.7,1.6c0.8,0,1.4-0.3,1.9-1v-6.5h3.2V57h-3.2v-1.2
			c-0.9,1-2,1.5-3.5,1.5c-1.1,0-1.9-0.3-2.5-0.9C133.7,55.8,133.5,55,133.5,54.1z"/>
		<path class="st0" d="M145.8,57V46.9h3.2v1.3c0.3-0.4,0.8-0.8,1.4-1.1c0.6-0.3,1.2-0.5,1.8-0.5v3.2c-0.2-0.1-0.4-0.1-0.8-0.1
			c-0.4,0-0.9,0.1-1.4,0.3c-0.5,0.2-0.8,0.4-1,0.6V57H145.8z"/>
		<path class="st0" d="M153,51.9c0-1.5,0.5-2.7,1.5-3.8c1-1,2.3-1.5,3.8-1.5c1.5,0,2.8,0.5,3.7,1.5c1,1,1.4,2.4,1.4,4.1V53h-7.2
			c0.1,0.5,0.4,0.9,0.8,1.2c0.4,0.3,1,0.5,1.7,0.5c0.4,0,0.8-0.1,1.3-0.2c0.5-0.2,0.9-0.4,1.1-0.6l1.4,2.1c-0.5,0.4-1.1,0.8-1.9,1
			c-0.8,0.2-1.5,0.3-2.3,0.3c-1.6,0-2.9-0.5-3.9-1.5C153.5,54.8,153,53.5,153,51.9z M156.3,50.8h4.1c-0.1-0.4-0.2-0.8-0.6-1.1
			c-0.3-0.3-0.8-0.5-1.5-0.5c-0.6,0-1.1,0.2-1.5,0.5C156.5,50,156.3,50.4,156.3,50.8z"/>
		<path class="st0" d="M164.7,55.2c0-0.5,0.2-1,0.6-1.4c0.4-0.4,0.8-0.6,1.3-0.6c0.6,0,1.1,0.2,1.5,0.6c0.4,0.4,0.6,1,0.6,1.7
			c0,1.7-0.8,3.1-2.4,4.2l-1.3-1.1c0.3-0.2,0.7-0.5,1.1-0.9c0.4-0.4,0.6-0.8,0.7-1.1c-0.2,0-0.3,0.1-0.5,0.1c-0.5,0-0.8-0.2-1.2-0.5
			C164.8,56.1,164.7,55.7,164.7,55.2z"/>
		<path class="st0" d="M176.8,55.7c-1-1-1.5-2.3-1.5-3.7c0-1.4,0.5-2.7,1.5-3.7c1-1,2.3-1.6,4-1.6c1.7,0,3,0.5,4,1.6
			c1,1,1.5,2.3,1.5,3.7c0,1.4-0.5,2.7-1.5,3.7c-1,1-2.4,1.6-4,1.6C179.1,57.2,177.8,56.7,176.8,55.7z M178.6,51.9
			c0,0.7,0.2,1.3,0.6,1.7c0.4,0.5,0.9,0.7,1.6,0.7c0.7,0,1.2-0.2,1.6-0.7c0.4-0.5,0.6-1,0.6-1.7c0-0.7-0.2-1.2-0.6-1.7
			c-0.4-0.5-0.9-0.7-1.6-0.7c-0.7,0-1.2,0.2-1.6,0.7C178.8,50.7,178.6,51.2,178.6,51.9z"/>
		<path class="st0" d="M187.9,57V46.9h3.2v1.3c0.8-1,2-1.5,3.5-1.5c1.1,0,1.9,0.3,2.5,0.9c0.6,0.6,0.8,1.4,0.8,2.3V57h-3.2v-5.8
			c0-1.1-0.5-1.7-1.6-1.7c-0.8,0-1.4,0.3-2,1V57H187.9z"/>
		<path class="st0" d="M199.8,53.3v-2.9h5v2.9H199.8z"/>
		<path class="st0" d="M205.9,51.9c0-1.6,0.4-2.9,1.3-3.8c0.8-1,1.9-1.4,3.2-1.4c1.2,0,2.2,0.5,3,1.5v-5.1h3.2V57h-3.2v-1.2
			c-0.8,1-1.8,1.4-3,1.4c-1.3,0-2.4-0.5-3.2-1.4C206.3,54.9,205.9,53.6,205.9,51.9z M209.9,50.2c-0.4,0.4-0.6,1-0.6,1.7
			c0,0.7,0.2,1.3,0.6,1.8c0.4,0.4,0.9,0.7,1.6,0.7c0.3,0,0.7-0.1,1.1-0.3c0.4-0.2,0.7-0.4,0.9-0.6v-3c-0.2-0.3-0.5-0.5-0.9-0.6
			c-0.4-0.2-0.7-0.2-1.1-0.2C210.8,49.5,210.3,49.7,209.9,50.2z"/>
		<path class="st0" d="M218.2,51.9c0-1.5,0.5-2.7,1.5-3.8c1-1,2.3-1.5,3.8-1.5c1.5,0,2.8,0.5,3.7,1.5c1,1,1.4,2.4,1.4,4.1V53h-7.2
			c0.1,0.5,0.4,0.9,0.8,1.2c0.4,0.3,1,0.5,1.7,0.5c0.4,0,0.8-0.1,1.3-0.2c0.5-0.2,0.9-0.4,1.1-0.6l1.4,2.1c-0.5,0.4-1.1,0.8-1.9,1
			c-0.8,0.2-1.5,0.3-2.3,0.3c-1.6,0-2.9-0.5-3.9-1.5C218.8,54.8,218.2,53.5,218.2,51.9z M221.5,50.8h4.1c-0.1-0.4-0.2-0.8-0.6-1.1
			c-0.3-0.3-0.8-0.5-1.5-0.5c-0.6,0-1.1,0.2-1.5,0.5C221.8,50,221.6,50.4,221.5,50.8z"/>
		<path class="st0" d="M230.3,57V46.9h3.2v1.3c0.3-0.4,0.7-0.7,1.3-1c0.6-0.3,1.3-0.5,2-0.5c1.5,0,2.4,0.6,2.8,1.8
			c0.3-0.5,0.8-0.9,1.4-1.3c0.6-0.4,1.3-0.5,2.1-0.5c1,0,1.7,0.3,2.2,0.8c0.5,0.5,0.8,1.3,0.8,2.3V57H243v-6.1
			c0-0.9-0.4-1.3-1.3-1.3c-0.7,0-1.3,0.3-1.8,1V57h-3.2v-6.1c0-0.9-0.4-1.3-1.3-1.3c-0.7,0-1.3,0.3-1.8,1V57H230.3z"/>
		<path class="st0" d="M247.9,53.9c0-1.1,0.3-1.9,1-2.5c0.7-0.5,1.5-0.8,2.4-0.8c1.4,0,2.5,0.4,3.1,1.2v-0.9c0-0.4-0.2-0.8-0.5-1
			c-0.4-0.3-0.9-0.4-1.5-0.4c-1,0-2,0.3-2.8,0.9l-1.2-2.2c1.2-1.1,2.7-1.7,4.6-1.7c0.6,0,1.2,0.1,1.8,0.2c0.5,0.1,1,0.3,1.5,0.6
			c0.5,0.3,0.8,0.7,1.1,1.3c0.3,0.5,0.4,1.2,0.4,1.9V57h-3.2v-1c-0.3,0.4-0.8,0.7-1.3,0.9c-0.6,0.2-1.2,0.3-1.8,0.3
			c-0.9,0-1.7-0.3-2.4-0.9C248.3,55.8,247.9,54.9,247.9,53.9z M251.6,53.1c-0.3,0.2-0.5,0.5-0.5,0.9c0,0.4,0.2,0.7,0.5,0.9
			c0.3,0.2,0.7,0.3,1.1,0.3c0.9,0,1.5-0.2,1.8-0.7v-0.9c-0.3-0.5-0.9-0.7-1.8-0.7C252.3,52.8,251.9,52.9,251.6,53.1z"/>
		<path class="st0" d="M260.1,57V46.9h3.2v1.3c0.8-1,2-1.5,3.5-1.5c1.1,0,1.9,0.3,2.5,0.9c0.6,0.6,0.8,1.4,0.8,2.3V57h-3.2v-5.8
			c0-1.1-0.5-1.7-1.6-1.7c-0.8,0-1.4,0.3-2,1V57H260.1z"/>
		<path class="st0" d="M271.8,51.9c0-1.6,0.4-2.9,1.3-3.8c0.8-1,1.9-1.4,3.2-1.4c1.2,0,2.2,0.5,3,1.5v-5.1h3.2V57h-3.2v-1.2
			c-0.8,1-1.8,1.4-3,1.4c-1.3,0-2.4-0.5-3.2-1.4C272.2,54.9,271.8,53.6,271.8,51.9z M275.7,50.2c-0.4,0.4-0.6,1-0.6,1.7
			c0,0.7,0.2,1.3,0.6,1.8c0.4,0.4,0.9,0.7,1.6,0.7c0.3,0,0.7-0.1,1.1-0.3c0.4-0.2,0.7-0.4,0.9-0.6v-3c-0.2-0.3-0.5-0.5-0.9-0.6
			c-0.4-0.2-0.7-0.2-1.1-0.2C276.7,49.5,276.1,49.7,275.7,50.2z"/>
		<path class="st0" d="M284.4,55.2c0-0.5,0.2-1,0.5-1.4c0.4-0.4,0.8-0.6,1.3-0.6c0.5,0,0.9,0.2,1.3,0.6c0.4,0.4,0.5,0.8,0.5,1.4
			s-0.2,1-0.5,1.4c-0.4,0.4-0.8,0.6-1.3,0.6c-0.5,0-0.9-0.2-1.3-0.6C284.6,56.2,284.4,55.8,284.4,55.2z"/>
	</g>
	<path class="st0" d="M0.4,37.4V0.6h18.3c3.9,0,7.1,1.2,9.3,3.5c2.3,2.3,3.4,5.3,3.4,8.7c0,3.5-1.1,6.4-3.4,8.7S22.7,25,18.8,25H9.9
		v12.4H0.4z M9.9,16.8h7.5c1.3,0,2.4-0.3,3.3-1.1c0.9-0.7,1.3-1.7,1.3-2.9c0-1.2-0.4-2.2-1.3-2.9s-2-1.1-3.3-1.1H9.9V16.8z"/>
	<path class="st0" d="M28,37.4L41.8,0.6h12l13.8,36.8H56.9l-1.8-5.3H40.6l-1.8,5.3H28z M43.2,23.8h9.3L47.9,10L43.2,23.8z"/>
	<path class="st0" d="M72.3,37.4V0.6h18.3c3.9,0,7.1,1.2,9.3,3.5c2.3,2.3,3.4,5.2,3.4,8.8c0,2.9-0.7,5.3-2.1,7.2
		c-1.4,1.8-3.1,3.1-5.1,3.8l7.4,13.5H92.8L86.7,25h-4.8v12.4H72.3z M81.8,16.8h7.5c1.3,0,2.4-0.3,3.3-1.1c0.9-0.7,1.3-1.7,1.3-2.9
		c0-1.2-0.4-2.2-1.3-2.9c-0.9-0.7-2-1-3.3-1h-7.5V16.8z"/>
	<path class="st0" d="M107.1,32.3l5-7.4c3.2,3.3,7.1,4.9,11.7,4.9c1.6,0,2.9-0.3,3.8-0.8c0.9-0.5,1.4-1.2,1.4-2.2
		c0-0.7-0.5-1.4-1.6-1.8c-1-0.5-2.3-0.8-3.9-1.1c-1.5-0.2-3.2-0.6-5-1.1c-1.8-0.5-3.4-1.1-4.9-1.9c-1.5-0.7-2.8-1.9-3.8-3.5
		c-1-1.6-1.5-3.5-1.5-5.7c0-3.2,1.3-6,3.9-8.2c2.6-2.2,6.1-3.4,10.6-3.4c5.9,0,10.9,1.7,14.8,5l-5.1,7.1c-3-2.6-6.6-3.9-10.7-3.9
		c-2.6,0-4,0.9-4,2.6c0,0.8,0.7,1.5,2.2,1.9c1.4,0.5,3.2,0.9,5.2,1.4c2,0.4,4.1,1,6,1.7c2,0.7,3.7,1.9,5.1,3.6
		c1.4,1.7,2.1,3.8,2.1,6.4c0,3.7-1.3,6.7-4,8.9c-2.7,2.2-6.4,3.3-11.2,3.3C116.6,38,111.2,36.1,107.1,32.3z"/>
	<path class="st0" d="M146.8,32.8c-3.7-3.5-5.5-8.1-5.5-13.7c0-5.6,1.8-10.2,5.5-13.7c3.7-3.5,8.3-5.3,14-5.3c5.7,0,10.3,1.8,14,5.3
		c3.7,3.5,5.5,8.1,5.5,13.7c0,5.6-1.8,10.2-5.5,13.7c-3.7,3.5-8.3,5.3-14,5.3C155.1,38.1,150.5,36.3,146.8,32.8z M153.5,11.3
		c-1.9,2-2.8,4.6-2.8,7.7c0,3.1,0.9,5.7,2.8,7.7c1.9,2,4.3,3.1,7.3,3.1c3,0,5.4-1,7.2-3.1c1.8-2,2.8-4.6,2.8-7.7
		c0-3.1-0.9-5.7-2.8-7.7c-1.8-2-4.3-3.1-7.2-3.1C157.8,8.3,155.4,9.3,153.5,11.3z"/>
	<path class="st0" d="M183.4,37.4V0.6h9.7L208,20.9V0.6h9.5v36.8h-9.1l-15.6-21.3v21.3H183.4z"/>
	<path class="st0" d="M221.2,37.4l13.9-36.8h12l13.8,36.8h-10.7l-1.8-5.3h-14.5l-1.8,5.3H221.2z M236.4,23.8h9.3L241.1,10
		L236.4,23.8z"/>
	<path class="st0" d="M264.4,37.4V0.6h9.5v28.5h14.8v8.3H264.4z"/>
	<g>
		<path class="st0" d="M282.6,5h-0.7V1.5h-1.2V0.9h3.1v0.6h-1.2V5z"/>
		<path class="st0" d="M286.2,5L285,1.6h0c0,0.5,0,1,0,1.4v2h-0.6V0.9h0.9l1.1,3.3h0l1.2-3.3h0.9V5H288V3c0-0.2,0-0.5,0-0.8
			c0-0.3,0-0.5,0-0.6h0L286.8,5H286.2z"/>
	</g>
</g>
<g>
</g>
<g>
</g>
<g>
</g>
<g>
</g>
<g>
</g>
<g>
</g>
<g>
</g>
<g>
</g>
<g>
</g>
<g>
</g>
<g>
</g>
<g>
</g>
<g>
</g>
<g>
</g>
<g>
</g>
</svg>
