<svg id="Layer_1" data-name="Layer 1" xmlns="http://www.w3.org/2000/svg" viewBox="0 0 616.22 214.96"><defs><style>.cls-1{fill:#fff;}</style></defs><title>logo</title><path class="cls-1" d="M32.41,118.21H0v-8.35H5.57c1.56,0,2.12-.89,2.12-3.23V55.74c0-2.34-.56-3.12-2.12-3.12H0V44.27H32.52c20.16,0,28.17,5.35,28.17,18.6,0,8.91-4.79,14.48-14.81,16.7,12,1.78,17.82,7.79,17.82,18.37C63.7,112.08,54.22,118.21,32.41,118.21Zm-1-41.43c9,0,13.36-3.56,13.36-12,0-9-3.34-12.14-12.7-12.14H22.94V76.8H31.4v0Zm-8.46,33.07H33.08c10.47,0,14.37-3.45,14.37-12.7,0-9.58-4.23-13.14-13.7-13.14H22.95v25.85h0Z"/><path class="cls-1" d="M83.85,93.93c0.33,10.13,5.34,16.82,15.48,16.82,7.68,0,12.14-3.9,14.7-10.47l8.46,3.79c-3,8.69-10.36,15.59-24.39,15.59-19.71,0-29.62-11.92-29.62-28.62,0-16.93,11.47-28.51,28.17-28.51,17.15,0,26.62,10.69,26.62,28.62v2.78H83.85Zm-0.22-7.57h24.5c-0.22-11-3.56-15.26-11.47-15.26S84.3,75.67,83.63,86.36Z"/><path class="cls-1" d="M149.1,74.78c2.56-8.69,8.24-12.25,14.7-12.25,8,0,13,5.12,13,13.14,0,7-4.23,11.69-10.58,11.69A7.38,7.38,0,0,1,164,72.88a5.56,5.56,0,0,0-3.67-1.11c-7.35,0-11.14,6.79-11.14,18.15v17c0,2.56.67,2.9,1.89,2.9h5.23v8.35h-29v-8.31h4.9c1.22,0,1.89-.33,1.89-2.9V75.67c0-2.67-.45-3.34-1.89-3.34H127V64h9a69.32,69.32,0,0,0,13-1.11V74.79h0.13Z"/><path class="cls-1" d="M202,73.67c3.45-7.46,9.69-11.14,18.37-11.14,11.47,0,17.59,6.68,17.59,20.27V107c0,2.56.67,2.9,1.89,2.9h4.9v8.35H216.69v-8.35H221c1.22,0,1.89-.33,1.89-2.9V83.13c0-7.57-2.78-10.8-8.91-10.8-7.46,0-11.8,5.57-11.8,17.71V107c0,2.56.67,2.9,1.89,2.9h4.34v8.35H180.39v-8.35h4.9c1.22,0,1.89-.33,1.89-2.9V75.67c0-2.67-.45-3.34-1.89-3.34h-4.9V64h8.69A67,67,0,0,0,202,62.87v10.8h0Z"/><path class="cls-1" d="M273.59,109.86h5.57c1.56,0,2.12-.56,2.12-3.23V55.74c0-2.56-.56-3.12-2.12-3.12h-5.57V44.27h32.07c20.16,0,29.51,6.9,29.51,21.83,0,15.59-8.8,22.16-29.62,22.16h-9v18.37c0,2.67.56,3.23,2.12,3.23h6.12v8.35h-31.2v-8.35Zm22.94-29.73h9.35c9.35,0,12.92-3.9,12.92-13.92s-3.56-13.58-12.92-13.58h-9.35v27.5Z"/><path class="cls-1" d="M356.1,71.88a9,9,0,0,1,2.12,6c0,4.9-3.79,8.13-8.69,8.13-5.68,0-9.24-3.12-9.24-8.91,0-10.69,11.58-14.59,25.61-14.59,16.82,0,23.94,5.12,23.94,18.38V107c0,2.12.45,2.9,1.78,2.9h4.68v8.35h-18A27.47,27.47,0,0,1,375,109c-2.78,5.9-10.8,10.69-19.82,10.69-10.24,0-16.37-6.24-16.37-14.25,0-13.58,13.7-17.82,36.08-21.16V81.13c0-7.24-3.67-10.13-11.58-10.13A24.2,24.2,0,0,0,356.1,71.88ZM374.81,95V90.81c-13.47,1.89-21.49,4.57-21.49,12,0,4.68,3,7.57,7.79,7.57,8.36,0,13.59-6.2,13.7-15.33h0Z"/><path class="cls-1" d="M402.76,102.73V72.36h-7.35V64.9s4.57-.33,4.23-0.33c3.79-.67,6.24-2.12,6.68-6.12l1.11-9.8h10.36V64h10.8v8.34H417.45v30.18c0,5.9,2.12,7.91,6.9,7.91a14.63,14.63,0,0,0,5.12-.89v8.57a34.24,34.24,0,0,1-9.69,1.45C407.55,119.55,402.76,114.87,402.76,102.73Z"/><path class="cls-1" d="M458.1,73.22c3.45-7.24,9.69-10.69,18.15-10.69,11.58,0,17.59,6.57,17.59,20V107c0,2.56.67,2.9,1.89,2.9h4.9v8.35H472.57v-8.35h4.34c1.22,0,1.89-.33,1.89-2.9V83.24c0-7.57-2.67-10.91-8.91-10.91-7.46,0-11.8,5.9-11.8,17.93V107c0,2.56.67,2.9,1.89,2.9h4.34v8.35H436.26v-8.35h4.9c1.22,0,1.89-.33,1.89-2.9V56c0-2.67-.45-3.34-1.89-3.34h-5.23V44.27h9.29a67.09,67.09,0,0,0,12.92-1.11V73.23h0Z"/><path class="cls-1" d="M616.22,49a49,49,0,1,0-84.33,34h0l0.65,0.65h0l34.68,34.69,34.67-34.67h0l0.52-.52h0A48.86,48.86,0,0,0,616.22,49Zm-49,22.35A22.35,22.35,0,1,1,589.57,49h0a22.35,22.35,0,0,1-22.34,22.36h0Z"/><path class="cls-1" d="M25.62,214.38l-0.73-5H24.66a15,15,0,0,1-4.9,4.32A13.09,13.09,0,0,1,13.81,215q-4.65,0-7.24-2.39A8.53,8.53,0,0,1,4,206a8.15,8.15,0,0,1,3.85-7.18q3.85-2.56,11.15-2.7l6-.17v-2.09q0-4.51-1.83-6.81t-5.9-2.3a19.74,19.74,0,0,0-9.1,2.44l-1.08-2.5a24.09,24.09,0,0,1,10.3-2.44q5.21,0,7.78,2.71t2.57,8.43v21H25.62Zm-11.63-2a10.85,10.85,0,0,0,8-2.89q2.92-2.89,2.92-8v-3.11l-5.53.23q-6.66.32-9.5,2.08A6,6,0,0,0,7,206.09a5.89,5.89,0,0,0,1.82,4.61A7.39,7.39,0,0,0,14,212.34Z"/><path class="cls-1" d="M82.88,185.12q0,6.86-4.29,10.5t-12.2,3.64H62.52v15.12h-9V171.86H67.09q7.74,0,11.76,3.33T82.88,185.12Zm-20.36,6.75h3q4.16,0,6.22-1.64a5.75,5.75,0,0,0,2.06-4.78,5.9,5.9,0,0,0-1.73-4.68q-1.73-1.51-5.42-1.51h-4.1v12.62Z"/><path class="cls-1" d="M119.76,198.06q0,7.94-4.19,12.42T103.91,215a16.31,16.31,0,0,1-8.26-2.05,13.65,13.65,0,0,1-5.5-5.89,19.79,19.79,0,0,1-1.92-9q0-8,4.16-12.39t11.69-4.42a16.42,16.42,0,0,1,8.26,2,13.59,13.59,0,0,1,5.5,5.85A19.6,19.6,0,0,1,119.76,198.06Zm-22.48,0q0,4.83,1.58,7.3a5.67,5.67,0,0,0,5.16,2.47,5.58,5.58,0,0,0,5.1-2.46q1.56-2.46,1.56-7.31t-1.57-7.24q-1.57-2.41-5.15-2.41a5.66,5.66,0,0,0-5.12,2.4Q97.28,193.2,97.28,198.06Z"/><path class="cls-1" d="M136,214.38h-8.87V169.12H136v45.26Z"/><path class="cls-1" d="M144.89,173.46q0-4.33,4.83-4.33t4.83,4.33a4.23,4.23,0,0,1-1.21,3.21,5.07,5.07,0,0,1-3.62,1.15Q144.89,177.82,144.89,173.46Zm9.25,40.92h-8.87V181.86h8.87v32.52Z"/><path class="cls-1" d="M182.21,178.75a9.19,9.19,0,0,0-7.88,3.83q-2.79,3.82-2.79,10.66,0,14.22,10.67,14.22a33.71,33.71,0,0,0,10.85-2.24v7.56A30.13,30.13,0,0,1,181.37,215q-9.28,0-14.19-5.63t-4.92-16.16a26.38,26.38,0,0,1,2.41-11.62,17.45,17.45,0,0,1,6.94-7.65,20.52,20.52,0,0,1,10.6-2.66,28.61,28.61,0,0,1,12.45,3l-2.91,7.33a48.31,48.31,0,0,0-4.8-2A14.31,14.31,0,0,0,182.21,178.75Z"/><path class="cls-1" d="M231.42,214.38h-8.87v-19q0-7-5.24-7-3.72,0-5.38,2.53t-1.66,8.2v15.3H201.4V169.12h8.87v9.22q0,1.08-.2,5.06l-0.2,2.62h0.47q3-4.77,9.42-4.77,5.73,0,8.7,3.08t3,8.84v21.2Z"/><path class="cls-1" d="M261.2,214.38L259.49,210h-0.23a13.11,13.11,0,0,1-4.61,3.91,14.91,14.91,0,0,1-6.18,1.09,10,10,0,0,1-7.37-2.68q-2.69-2.68-2.69-7.62,0-5.18,3.62-7.63t10.92-2.72l5.64-.17v-1.42q0-4.94-5.06-4.94a23.06,23.06,0,0,0-9.16,2.36l-2.94-6a26.44,26.44,0,0,1,12.45-2.94q6.54,0,10,2.85t3.49,8.67v21.67h-6.2Zm-2.62-15.07-3.43.12a11,11,0,0,0-5.76,1.4,4.39,4.39,0,0,0-1.89,3.9q0,3.75,4.3,3.75a6.82,6.82,0,0,0,4.93-1.77,6.23,6.23,0,0,0,1.85-4.71v-2.68Z"/><path class="cls-1" d="M294.68,181.25a14.36,14.36,0,0,1,3,.26L297,189.83a10.19,10.19,0,0,0-2.62-.29,9.41,9.41,0,0,0-6.62,2.18,7.88,7.88,0,0,0-2.37,6.11v16.55h-8.87V181.86h6.72l1.31,5.47H285a12.23,12.23,0,0,1,4.09-4.41A10.07,10.07,0,0,1,294.68,181.25Z"/><path class="cls-1" d="M317.28,207.89a19.23,19.23,0,0,0,5.58-1v6.6a19.92,19.92,0,0,1-8.14,1.48q-5.32,0-7.75-2.69t-2.43-8.07V188.52h-4.25v-3.75l4.89-3,2.56-6.86h5.67v6.92h9.1v6.66h-9.1V204.2a3.46,3.46,0,0,0,1.06,2.79A4.19,4.19,0,0,0,317.28,207.89Z"/><path class="cls-1" d="M345.14,174q0-2.79,1.83-2.79a1.63,1.63,0,0,1,1.41.73,3.58,3.58,0,0,1,.51,2.07,3.66,3.66,0,0,1-.51,2.06,1.61,1.61,0,0,1-1.41.76Q345.14,176.8,345.14,174Zm3.29,40.4h-2.88V182.76h2.88v31.62Z"/><path class="cls-1" d="M381.06,214.38v-20.5q0-4.77-2-6.94t-6.22-2.17q-5.67,0-8.3,2.87t-2.63,9.29v17.45H359V182.76h2.44L362,187.1h0.17q3.08-4.94,11-4.94,10.76,0,10.76,11.55v20.68h-2.85Z"/><path class="cls-1" d="M402.5,212.4a21.59,21.59,0,0,0,4.77-.47v2.33a15.28,15.28,0,0,1-4.83.7q-4.19,0-6.18-2.24t-2-7V185.26h-4.68v-1.69l4.68-1.31,1.45-7.16h1.48v7.65h9.28v2.5H397.2v20a9.13,9.13,0,0,0,1.28,5.38A4.65,4.65,0,0,0,402.5,212.4Z"/><path class="cls-1" d="M426.87,215q-6.89,0-10.75-4.25t-3.85-11.9q0-7.56,3.72-12.11a12.29,12.29,0,0,1,10-4.55,10.83,10.83,0,0,1,8.81,3.9q3.23,3.9,3.23,10.59V199H415.29q0.06,6.52,3,9.95t8.54,3.43a26.49,26.49,0,0,0,4.76-.38,28.91,28.91,0,0,0,5.19-1.63V213a23.19,23.19,0,0,1-4.94,1.58A27.53,27.53,0,0,1,426.87,215ZM426,184.71a9.47,9.47,0,0,0-7.33,3q-2.76,3-3.23,8.68H435q0-5.5-2.38-8.59A7.87,7.87,0,0,0,426,184.71Z"/><path class="cls-1" d="M459.24,182.15a24.73,24.73,0,0,1,4.3.41L463,185.32a16.87,16.87,0,0,0-4.1-.49,8,8,0,0,0-6.63,3.43,14,14,0,0,0-2.59,8.67v17.45h-2.88V182.76h2.44l0.29,5.7h0.2a13.4,13.4,0,0,1,4.16-4.9A9.74,9.74,0,0,1,459.24,182.15Z"/><path class="cls-1" d="M489.17,214.38l-0.73-5h-0.23a15,15,0,0,1-4.9,4.32,13.09,13.09,0,0,1-5.95,1.27q-4.65,0-7.24-2.39a8.53,8.53,0,0,1-2.59-6.6,8.15,8.15,0,0,1,3.85-7.18q3.85-2.56,11.15-2.7l6-.17v-2.09q0-4.51-1.83-6.81t-5.9-2.3a19.75,19.75,0,0,0-9.1,2.44l-1.08-2.5a24.09,24.09,0,0,1,10.3-2.44q5.21,0,7.78,2.71t2.57,8.43v21h-2.12Zm-11.63-2a10.85,10.85,0,0,0,8-2.89q2.92-2.89,2.92-8v-3.11l-5.53.23q-6.66.32-9.5,2.08a6,6,0,0,0-2.84,5.48,5.89,5.89,0,0,0,1.82,4.61A7.39,7.39,0,0,0,477.54,212.34Z"/><path class="cls-1" d="M514.15,215q-6.78,0-10.62-4.28t-3.84-11.92q0-7.85,4-12.23t10.91-4.38a21.92,21.92,0,0,1,7.85,1.42l-0.79,2.56a23.05,23.05,0,0,0-7.13-1.37q-5.82,0-8.81,3.59t-3,10.34q0,6.4,3,10a10.27,10.27,0,0,0,8.38,3.62,20.57,20.57,0,0,0,8-1.54v2.68A18.14,18.14,0,0,1,514.15,215Z"/><path class="cls-1" d="M538.18,212.4a21.59,21.59,0,0,0,4.77-.47v2.33a15.28,15.28,0,0,1-4.83.7q-4.19,0-6.18-2.24t-2-7V185.26h-4.68v-1.69l4.68-1.31,1.45-7.16h1.48v7.65h9.28v2.5h-9.28v20a9.13,9.13,0,0,0,1.28,5.38A4.65,4.65,0,0,0,538.18,212.4Z"/><path class="cls-1" d="M549.38,174q0-2.79,1.83-2.79a1.63,1.63,0,0,1,1.41.73,3.58,3.58,0,0,1,.51,2.07,3.66,3.66,0,0,1-.51,2.06,1.61,1.61,0,0,1-1.41.76Q549.37,176.8,549.38,174Zm3.29,40.4h-2.88V182.76h2.88v31.62Z"/><path class="cls-1" d="M570.17,214.38L558,182.76h3l8.17,21.49a66.35,66.35,0,0,1,2.44,7.21h0.17q1.19-4,2.44-7.27l8.17-21.44h3l-12.22,31.62h-2.91Z"/><path class="cls-1" d="M603.36,215q-6.89,0-10.75-4.25t-3.85-11.9q0-7.56,3.72-12.11a12.29,12.29,0,0,1,10-4.55,10.83,10.83,0,0,1,8.81,3.9q3.23,3.9,3.23,10.59V199H591.78q0.06,6.52,3,9.95t8.54,3.43a26.49,26.49,0,0,0,4.76-.38,28.91,28.91,0,0,0,5.19-1.63V213a23.19,23.19,0,0,1-4.94,1.58A27.53,27.53,0,0,1,603.36,215Zm-0.84-30.25a9.47,9.47,0,0,0-7.33,3q-2.76,3-3.23,8.68H611.5q0-5.5-2.38-8.59A7.87,7.87,0,0,0,602.51,184.71Z"/></svg>